<svg width="37" height="37" viewBox="0 0 37 37" fill="none" xmlns="http://www.w3.org/2000/svg">
<path d="M18.5723 37C8.411 37 0 28.7335 0 18.5723C0 8.411 8.411 0 18.5723 0C28.7335 0 37 8.411 37 18.5723C37 28.7335 28.7335 37 18.5723 37ZM27.6936 12.5171C28.5391 11.6716 28.5391 10.2964 27.6936 9.45017C26.8546 8.61189 25.4794 8.59816 24.6267 9.45017L18.5723 15.5068L12.3726 9.44945C11.5271 8.60395 10.1519 8.60395 9.30564 9.44945C8.46014 10.295 8.46014 11.6702 9.30564 12.5164L15.3615 18.5723L9.30564 24.6281C8.46014 25.4744 8.46014 26.8496 9.30564 27.6951C10.1519 28.5406 11.5271 28.5406 12.3726 27.6951L18.5723 21.6378L24.6267 27.6951C25.4707 28.5391 26.846 28.542 27.6936 27.6951C28.5391 26.8496 28.5391 25.4744 27.6936 24.6281L21.6378 18.5723L27.6936 12.5171Z" fill="black"/>
</svg>
