<svg width="28" height="28" viewBox="0 0 28 28" fill="none" xmlns="http://www.w3.org/2000/svg">
<g clip-path="url(#clip0)">
<path d="M25.4233 3.51459H2.57671C1.15593 3.51459 0 4.67046 0 6.09305C0 7.51383 1.15593 8.66976 2.57671 8.66976H25.4233C26.8441 8.66976 28 7.51383 28 6.09305C28 4.67046 26.8441 3.51459 25.4233 3.51459Z" fill="black"/>
<path d="M25.4233 11.4224H2.57671C1.15593 11.4224 0 12.5783 0 14.0009C0 15.4217 1.15593 16.5776 2.57671 16.5776H25.4233C26.8441 16.5776 28 15.4217 28 14.0009C28 12.5783 26.8441 11.4224 25.4233 11.4224V11.4224Z" fill="black"/>
<path d="M25.4233 19.3302H2.57671C1.15593 19.3302 0 20.4862 0 21.9087C0 23.3295 1.15593 24.4854 2.57671 24.4854H25.4233C26.8441 24.4854 28 23.3295 28 21.9087C28 20.4862 26.8441 19.3302 25.4233 19.3302Z" fill="black"/>
</g>
<defs>
<clipPath id="clip0">
<rect width="28" height="28" fill="white"/>
</clipPath>
</defs>
</svg>
